<?xml version="1.0" standalone="no"?>
<!DOCTYPE svg PUBLIC "-//W3C//DTD SVG 20010904//EN"
 "http://www.w3.org/TR/2001/REC-SVG-20010904/DTD/svg10.dtd">
<svg version="1.0" xmlns="http://www.w3.org/2000/svg"
 width="300.000000pt" height="168.000000pt" viewBox="0 0 300.000000 168.000000"
 preserveAspectRatio="xMidYMid meet">
<metadata>
Created by potrace 1.10, written by Peter Selinger 2001-2011
</metadata>
<g transform="translate(0.000000,168.000000) scale(0.100000,-0.100000)"
fill="#000000" stroke="none">
<path d="M1276 1188 c-22 -30 -20 -41 9 -68 17 -16 25 -34 25 -57 l0 -33 -134
0 c-134 0 -135 0 -155 -27 -18 -21 -20 -34 -15 -74 6 -42 4 -50 -12 -55 -11
-4 -29 -16 -41 -27 -43 -38 -23 -126 32 -147 21 -8 23 -15 22 -63 -2 -42 3
-60 17 -76 19 -20 27 -21 292 -21 294 0 296 0 310 54 8 34 0 121 -11 119 -5
-2 -12 -33 -15 -70 l-5 -68 -280 0 -280 0 -3 205 c-2 184 -1 206 15 217 12 10
76 13 235 13 139 0 218 4 218 10 0 6 -35 10 -85 10 l-85 0 0 38 c0 26 6 41 20
50 22 14 27 61 8 80 -20 20 -65 14 -82 -10z m63 -12 c17 -20 2 -48 -23 -44
-24 3 -34 37 -14 49 18 12 24 11 37 -5z m-329 -391 c0 -37 -4 -65 -10 -65 -19
0 -50 40 -50 65 0 25 31 65 50 65 6 0 10 -28 10 -65z"/>
<path d="M1661 1156 c-49 -18 -111 -74 -132 -120 -21 -47 -25 -130 -7 -187 8
-30 8 -48 -1 -79 -7 -22 -9 -44 -6 -49 3 -5 26 -4 53 4 42 11 53 10 78 -4 44
-23 149 -21 199 6 84 44 128 119 127 214 0 157 -162 269 -311 215z m186 -42
c65 -37 103 -106 103 -183 -1 -72 -60 -159 -127 -187 -44 -19 -125 -18 -167 2
-28 14 -42 15 -75 6 -45 -11 -43 -14 -26 45 3 12 -1 43 -9 68 -22 65 -20 103
10 164 56 111 181 148 291 85z"/>
<path d="M1679 1018 c-1 -2 -3 -40 -4 -85 -2 -66 0 -83 11 -83 11 0 14 19 14
85 0 50 -4 85 -10 85 -5 0 -11 -1 -11 -2z"/>
<path d="M1789 1016 c-10 -10 -1 -160 10 -164 7 -2 11 23 11 82 0 75 -6 97
-21 82z"/>
<path d="M1732 934 c2 -27 7 -48 13 -46 15 3 12 85 -3 90 -10 3 -12 -8 -10
-44z"/>
<path d="M1626 963 c-13 -13 -6 -63 9 -63 10 0 15 10 15 29 0 30 -12 46 -24
34z"/>
<path d="M1844 956 c-8 -21 -1 -49 14 -54 8 -2 12 7 12 27 0 33 -17 51 -26 27z"/>
<path d="M1175 840 c-11 -12 -15 -26 -10 -37 6 -16 8 -16 18 5 13 27 33 28 47
2 11 -20 30 -19 30 1 0 14 -38 49 -53 49 -8 0 -22 -9 -32 -20z"/>
<path d="M1416 844 c-17 -17 -21 -44 -7 -44 5 0 11 7 15 15 3 8 12 15 21 15 9
0 18 -7 21 -15 9 -22 24 -18 24 5 0 18 -26 40 -49 40 -5 0 -17 -7 -25 -16z"/>
<path d="M1270 745 c-24 -29 19 -89 61 -83 12 2 31 15 42 29 15 22 17 30 8 48
-9 16 -21 21 -55 21 -26 0 -48 -6 -56 -15z m85 -30 c0 -13 -8 -21 -24 -23 -28
-4 -46 11 -37 33 9 25 61 16 61 -10z"/>
</g>
</svg>
